<svg xmlns="http://www.w3.org/2000/svg" width="189.905" height="187.266" viewBox="0 0 189.905 187.266">
  <g id="Group_506" data-name="Group 506" transform="translate(-501.011 -286.462)">
    <g id="Group_501" data-name="Group 501">
      <path id="Path_2254" data-name="Path 2254" d="M540.247,464.907A9.942,9.942,0,0,1,549,453.926L679.873,439.2a9.932,9.932,0,0,1,2.221,19.739L551.225,473.665A9.942,9.942,0,0,1,540.247,464.907Zm9.248-6.62a5.543,5.543,0,0,0,1.24,11.017L681.6,454.579a5.543,5.543,0,0,0-1.239-11.017Z" fill="#fff"/>
      <path id="Path_2255" data-name="Path 2255" d="M551.4,445.631,620.321,419.2a2.195,2.195,0,0,0-1.572-4.1l-68.917,26.426a2.194,2.194,0,0,0,1.571,4.1Z" fill="#fff"/>
      <path id="Path_2256" data-name="Path 2256" d="M541.441,418.723l4.19-1.307a2.194,2.194,0,1,0-1.307-4.189l-4.19,1.307a2.194,2.194,0,0,0,1.307,4.189Z" fill="#fff"/>
      <path id="Path_2257" data-name="Path 2257" d="M503.86,452.21l9.049-2.748a2.195,2.195,0,1,0-1.307-4.19l-9.049,2.749a2.194,2.194,0,1,0,1.307,4.189Z" fill="#fff"/>
      <path id="Path_2258" data-name="Path 2258" d="M526.909,418.723l4.189-1.307a2.194,2.194,0,1,0-1.307-4.189l-4.189,1.307a2.194,2.194,0,1,0,1.307,4.189Z" fill="#fff"/>
      <path id="Path_2259" data-name="Path 2259" d="M529.071,436.543l13.96-4.648a2.195,2.195,0,1,0-1.307-4.19l-13.96,4.649a2.194,2.194,0,0,0,1.307,4.189Z" fill="#fff"/>
      <path id="Path_2260" data-name="Path 2260" d="M513.01,438.438l4.189-1.307a2.195,2.195,0,1,0-1.307-4.19l-4.189,1.307a2.195,2.195,0,1,0,1.307,4.19Z" fill="#fff"/>
      <path id="Path_2261" data-name="Path 2261" d="M529.071,449.591l13.961-4.649a2.194,2.194,0,1,0-1.308-4.189l-13.96,4.649a2.194,2.194,0,0,0,1.307,4.189Z" fill="#fff"/>
      <path id="Path_2262" data-name="Path 2262" d="M518.826,459.742l4.19-1.307a2.195,2.195,0,0,0-1.307-4.19l-4.19,1.307a2.195,2.195,0,0,0,1.307,4.19Z" fill="#fff"/>
      <path id="Path_2263" data-name="Path 2263" d="M673.246,408.984a65.073,65.073,0,0,0-29.659-33.863c-.046-.025-.095-.04-.142-.062a64.729,64.729,0,0,0-19.879-6.895c-.058-.015-.113-.036-.172-.046-.543-.093-1.088-.172-1.632-.251l-.171-.026a64.9,64.9,0,0,0-23.377.955,12.011,12.011,0,0,0-.783-4.92c-2.24-5.841-8.435-8.916-13.81-6.855s-7.924,8.489-5.685,14.33a12,12,0,0,0,2.707,4.183,65.171,65.171,0,0,0-28.925,80.05,2.194,2.194,0,0,0,2.834,1.264l117.43-45.029A2.195,2.195,0,0,0,673.246,408.984Zm-88.377-35.618a7.462,7.462,0,0,1-2.835-3.586c-1.373-3.582.044-7.467,3.158-8.661s6.767.747,8.141,4.329a7.452,7.452,0,0,1,.289,4.556q-1.847.561-3.663,1.235c-1.129.414-2.247.861-3.375,1.355-.427.185-.848.378-1.269.571C585.165,373.235,585.021,373.3,584.869,373.366Zm-29.8,78.584a60.773,60.773,0,0,1,30.674-74.134l.018-.008.115-.055q.751-.366,1.515-.715c.269-.123.537-.245.8-.362.843-.368,1.7-.724,2.562-1.056.545-.209,1.094-.406,1.644-.6.22-.077.441-.153.665-.228.177-.06.355-.116.532-.174.752-.243,1.523-.48,2.336-.711.011,0,.02-.01.032-.013a60.51,60.51,0,0,1,26.8-1.431c.05.009.1,0,.148.01a60.354,60.354,0,0,1,18.485,6.45l.009.006c.682.369,1.353.755,2.019,1.149.109.065.219.128.328.194.524.315,1.039.643,1.553.973.253.164.507.324.758.491.355.236.7.482,1.054.725.4.278.8.554,1.189.842.189.139.375.282.562.423.544.409,1.085.822,1.615,1.25l.085.07q.963.779,1.9,1.6h.005a60.722,60.722,0,0,1,15.856,21.876Z" fill="#fff"/>
    </g>
    <path id="Path_2264" data-name="Path 2264" d="M562.72,365.317c-.351-.336-.69-.681-1.022-1.035-.091-.1-.383-.441-.143-.156-.156-.186-.309-.375-.456-.567a15.844,15.844,0,0,1-1.206-1.919c-.208-.373-.047-.08-.048-.082-.059-.153-.119-.305-.172-.459a7.911,7.911,0,0,1-.253-.906c-.064-.295-.1-.591-.139-.891.077.644.007-.205.014-.447a10.38,10.38,0,0,1,.222-1.739c-.132.664.074-.248.135-.449.089-.293.187-.582.292-.87.454-1.246,1.03-2.444,1.594-3.642a32.268,32.268,0,0,0,2.984-8.685,21.376,21.376,0,0,0-1.618-11.5c-2.972-7.117-8.246-13.064-13.66-18.438-1.87-1.856-5.833.944-3.684,3.077,4.75,4.715,9.367,9.9,12.236,16.014a18.409,18.409,0,0,1,1.806,10.768c-.054.363-.123.723-.194,1.083-.074.376.083-.3-.042.185-.055.212-.109.423-.168.633-.2.718-.443,1.424-.709,2.12-.505,1.321-1.107,2.6-1.709,3.88-1.108,2.353-2.288,4.821-2.423,7.465-.2,3.869,1.993,7.064,4.679,9.636,1.9,1.822,5.871-.983,3.684-3.077Z" fill="#fff"/>
    <path id="Path_2265" data-name="Path 2265" d="M617.476,353.5c-1.113-1.306-2.186-2.648-3.178-4.049a24.97,24.97,0,0,1-2.047-3.284c-.289-.543-.561-1.1-.81-1.657-.1-.234-.2-.471-.3-.708-.161-.388-.031-.068,0,.011-.063-.17-.123-.34-.182-.512a17.482,17.482,0,0,1-.711-2.895c-.057-.363,0-.013.005.052-.014-.124-.029-.249-.037-.374-.016-.222-.034-.442-.042-.664-.016-.428-.013-.857.012-1.285s.071-.824.129-1.235c.037-.261-.054.224.039-.208.047-.219.093-.438.146-.656a22,22,0,0,1,1.73-4.475c1.491-3,3.311-5.851,4.362-9.058a21.688,21.688,0,0,0,.1-12.721c-2.327-8.235-7.746-15.476-13.155-21.941-.661-.79-1.95-1.765-3.043-1.23-1.048.513-.666,1.96-.073,2.668a89.1,89.1,0,0,1,7.787,10.539,41.535,41.535,0,0,1,3.994,8.252,25.4,25.4,0,0,1,.9,3.593,9.29,9.29,0,0,1,.164,1.323c.041.519.062,1.039.06,1.559a14.81,14.81,0,0,1-.833,5.209c-2.055,6.422-7.266,11.7-6.558,18.862.616,6.228,4.484,11.693,8.428,16.322.668.785,1.944,1.768,3.042,1.23,1.043-.51.673-1.964.074-2.668Z" fill="#fff"/>
    <path id="Path_2266" data-name="Path 2266" d="M576.51,297.044a26.278,26.278,0,0,1,2.478,4.6,14.066,14.066,0,0,1,.5,1.57c.078.306.147.614.2.924.022.119.041.238.06.357.061.383-.007-.219.028.271a11.231,11.231,0,0,1-1.046,5.675,42.187,42.187,0,0,0-2.111,5.71,18.069,18.069,0,0,0,.021,8.223c1.151,5.136,3.906,9.831,6.748,14.192.555.851,2.026,1.728,3.043,1.229,1.122-.549.569-1.907.073-2.667A38.784,38.784,0,0,1,580.9,325.4a14.641,14.641,0,0,1-.011-7.109c1.091-4.04,3.572-7.554,3.187-11.918-.35-3.961-2.292-7.511-4.452-10.769-.561-.847-2.02-1.73-3.042-1.23-1.118.547-.575,1.911-.074,2.668Z" fill="#fff"/>
  </g>
</svg>
