<svg xmlns="http://www.w3.org/2000/svg" width="351.776" height="268.966" viewBox="0 0 351.776 268.966">
  <g id="Group_499" data-name="Group 499" transform="translate(-1624.109 -286.462)">
    <g id="Group_497" data-name="Group 497">
      <g id="Group_496" data-name="Group 496">
        <g id="Group_494" data-name="Group 494">
          <path id="Path_2205" data-name="Path 2205" d="M1626.532,521.221l30.1-25.144h-26.541l1.118-7.682h44.7l-1.187,8.381-29.334,24.445h26.54l-1.048,7.682h-45.4Z" fill="#f8c500"/>
          <path id="Path_2206" data-name="Path 2206" d="M1721.309,509.487a8.093,8.093,0,0,1-.978,2.62,11.526,11.526,0,0,1-1.886,2.479,10.618,10.618,0,0,1-2.479,1.851,5.652,5.652,0,0,1-2.689.733h-15.925l1.048-7.683h8.94l.559-4.051h-12.781l-2.235,15.785h25.842l-1.048,7.682h-32.826a4.647,4.647,0,0,1-2.549-.733,7.02,7.02,0,0,1-1.956-1.851,7.825,7.825,0,0,1-1.187-2.479,6.783,6.783,0,0,1-.245-2.619l2.235-15.785a8.055,8.055,0,0,1,.978-2.619,11.439,11.439,0,0,1,1.886-2.479,10.579,10.579,0,0,1,2.479-1.851,5.76,5.76,0,0,1,2.759-.733H1716a4.709,4.709,0,0,1,2.515.733,6.873,6.873,0,0,1,1.99,1.851,7.9,7.9,0,0,1,1.188,2.479,5.965,5.965,0,0,1,.174,2.619Z" fill="#f8c500"/>
          <path id="Path_2207" data-name="Path 2207" d="M1728.852,505.436a8.029,8.029,0,0,1,.977-2.619,11.435,11.435,0,0,1,1.886-2.479,10.6,10.6,0,0,1,2.479-1.851,5.76,5.76,0,0,1,2.759-.733h20.883l-1.117,7.682h-13.9l-3.283,23.467h-13.968Z" fill="#f8c500"/>
          <path id="Path_2208" data-name="Path 2208" d="M1763,514.551a11.409,11.409,0,0,1,1.886-2.48,10.6,10.6,0,0,1,2.479-1.85,5.761,5.761,0,0,1,2.759-.734h15.924L1785,517.17h-8.94l-.628,4.051h12.781l2.235-15.785H1764.61l1.118-7.682h32.826a4.708,4.708,0,0,1,2.514.733,6.889,6.889,0,0,1,1.991,1.851,7.9,7.9,0,0,1,1.187,2.479,5.965,5.965,0,0,1,.174,2.619l-3.282,23.467H1767.4a4.647,4.647,0,0,1-2.549-.733,7.02,7.02,0,0,1-1.956-1.851,7.826,7.826,0,0,1-1.187-2.479,6.8,6.8,0,0,1-.245-2.619l.629-4.051A6.9,6.9,0,0,1,1763,514.551Z" fill="#f8c500"/>
          <path id="Path_2209" data-name="Path 2209" d="M1810.427,512.49l1.048-7.682h23.746l-1.048,7.682Z" fill="#f8c500"/>
          <path id="Path_2210" data-name="Path 2210" d="M1852.82,528.9h-13.968l4.609-32.826a8.042,8.042,0,0,1,.978-2.618,11.42,11.42,0,0,1,1.886-2.48,10.563,10.563,0,0,1,2.48-1.851,5.753,5.753,0,0,1,2.758-.733h37.087l-1.118,7.682h-30.1l-1.257,8.731h27.239l-1.048,7.682h-27.239Z" fill="#f8c500"/>
          <path id="Path_2211" data-name="Path 2211" d="M1908.275,497.823l-4.4,31.08h-13.968l4.4-31.08Zm-12.642-9.428H1909.6l-.978,6.705h-13.969Z" fill="#f8c500"/>
          <path id="Path_2212" data-name="Path 2212" d="M1916.585,488.395h13.968l-5.727,40.508h-13.968Z" fill="#f8c500"/>
          <path id="Path_2213" data-name="Path 2213" d="M1934.394,514.551a11.44,11.44,0,0,1,1.886-2.48,10.623,10.623,0,0,1,2.479-1.85,5.761,5.761,0,0,1,2.759-.734h15.924l-1.048,7.683h-8.939l-.629,4.051h12.781l2.235-15.785H1936l1.118-7.682h32.826a4.708,4.708,0,0,1,2.514.733,6.889,6.889,0,0,1,1.991,1.851,7.9,7.9,0,0,1,1.187,2.479,5.967,5.967,0,0,1,.175,2.619l-3.283,23.467h-33.734a4.647,4.647,0,0,1-2.549-.733,7.016,7.016,0,0,1-1.955-1.851,7.807,7.807,0,0,1-1.188-2.479,6.82,6.82,0,0,1-.245-2.619l.629-4.051A6.9,6.9,0,0,1,1934.394,514.551Z" fill="#f8c500"/>
        </g>
        <g id="Group_495" data-name="Group 495">
          <path id="Path_2214" data-name="Path 2214" d="M1744.968,464.907a9.943,9.943,0,0,1,8.758-10.981L1884.594,439.2a9.932,9.932,0,0,1,2.221,19.739l-130.868,14.725A9.943,9.943,0,0,1,1744.968,464.907Zm9.248-6.62a5.543,5.543,0,0,0,1.24,11.017l130.868-14.725a5.543,5.543,0,0,0-1.239-11.017Z" fill="#f8c500"/>
          <path id="Path_2215" data-name="Path 2215" d="M1756.125,445.631l68.917-26.426a2.194,2.194,0,0,0-1.571-4.1l-68.918,26.426a2.195,2.195,0,0,0,1.572,4.1Z" fill="#f8c500"/>
          <path id="Path_2216" data-name="Path 2216" d="M1746.163,418.723l4.189-1.307a2.194,2.194,0,1,0-1.307-4.189l-4.19,1.307a2.194,2.194,0,1,0,1.308,4.189Z" fill="#f8c500"/>
          <path id="Path_2217" data-name="Path 2217" d="M1708.581,452.21l9.049-2.748a2.195,2.195,0,1,0-1.307-4.19l-9.049,2.749a2.194,2.194,0,1,0,1.307,4.189Z" fill="#f8c500"/>
          <path id="Path_2218" data-name="Path 2218" d="M1731.63,418.723l4.19-1.307a2.194,2.194,0,1,0-1.307-4.189l-4.19,1.307a2.194,2.194,0,1,0,1.307,4.189Z" fill="#f8c500"/>
          <path id="Path_2219" data-name="Path 2219" d="M1733.793,436.543l13.96-4.648a2.195,2.195,0,0,0-1.308-4.19l-13.96,4.649a2.194,2.194,0,1,0,1.308,4.189Z" fill="#f8c500"/>
          <path id="Path_2220" data-name="Path 2220" d="M1717.731,438.438l4.189-1.307a2.195,2.195,0,1,0-1.307-4.19l-4.189,1.307a2.195,2.195,0,1,0,1.307,4.19Z" fill="#f8c500"/>
          <path id="Path_2221" data-name="Path 2221" d="M1733.793,449.591l13.96-4.649a2.194,2.194,0,0,0-1.307-4.189l-13.961,4.649a2.194,2.194,0,1,0,1.308,4.189Z" fill="#f8c500"/>
          <path id="Path_2222" data-name="Path 2222" d="M1723.548,459.742l4.189-1.307a2.195,2.195,0,1,0-1.307-4.19l-4.19,1.307a2.195,2.195,0,1,0,1.308,4.19Z" fill="#f8c500"/>
          <path id="Path_2223" data-name="Path 2223" d="M1877.967,408.984a65.074,65.074,0,0,0-29.659-33.863c-.046-.025-.095-.04-.142-.062a64.721,64.721,0,0,0-19.879-6.895c-.058-.015-.113-.036-.172-.046-.543-.093-1.088-.172-1.632-.251l-.17-.026a64.906,64.906,0,0,0-23.378.955,12.011,12.011,0,0,0-.783-4.92c-2.24-5.841-8.435-8.916-13.81-6.855s-7.924,8.489-5.685,14.33a12.017,12.017,0,0,0,2.707,4.183,65.171,65.171,0,0,0-28.925,80.05,2.195,2.195,0,0,0,2.835,1.264L1876.7,411.819A2.195,2.195,0,0,0,1877.967,408.984Zm-88.377-35.618a7.461,7.461,0,0,1-2.834-3.586c-1.374-3.582.043-7.467,3.158-8.661s6.766.747,8.14,4.329a7.452,7.452,0,0,1,.289,4.556q-1.846.561-3.663,1.235c-1.129.414-2.247.861-3.374,1.355-.428.185-.849.378-1.27.571C1789.886,373.235,1789.742,373.3,1789.59,373.366Zm-29.8,78.584a60.773,60.773,0,0,1,30.674-74.134l.018-.008.115-.055q.751-.366,1.515-.715c.269-.123.537-.245.8-.362.843-.368,1.7-.724,2.562-1.056.545-.209,1.094-.406,1.644-.6.221-.077.441-.153.666-.228.176-.06.354-.116.532-.174.752-.243,1.522-.48,2.335-.711.011,0,.021-.01.032-.013a60.51,60.51,0,0,1,26.8-1.431c.05.009.1,0,.149.01a60.358,60.358,0,0,1,18.484,6.45l.009.006c.682.369,1.353.755,2.019,1.149.109.065.219.128.328.194.525.315,1.04.643,1.553.973.253.164.508.324.758.491.356.236.7.482,1.054.725.4.278.8.554,1.189.842.189.139.375.282.562.423.544.409,1.085.822,1.615,1.25l.085.07q.963.779,1.9,1.6h0a60.721,60.721,0,0,1,15.856,21.876Z" fill="#f8c500"/>
        </g>
      </g>
      <path id="Path_2224" data-name="Path 2224" d="M1767.441,365.317c-.35-.336-.689-.681-1.021-1.035-.092-.1-.383-.441-.144-.156-.156-.186-.309-.375-.456-.567a15.709,15.709,0,0,1-1.2-1.919c-.209-.373-.048-.08-.049-.082-.059-.153-.119-.305-.172-.459a8.1,8.1,0,0,1-.253-.906c-.063-.295-.1-.591-.139-.891.077.644.007-.205.014-.447a10.38,10.38,0,0,1,.222-1.739c-.132.664.074-.248.135-.449.089-.293.188-.582.292-.87.454-1.246,1.03-2.444,1.595-3.642a32.268,32.268,0,0,0,2.983-8.685,21.376,21.376,0,0,0-1.618-11.5c-2.972-7.117-8.246-13.064-13.66-18.438-1.87-1.856-5.833.944-3.684,3.077,4.75,4.715,9.367,9.9,12.236,16.014a18.409,18.409,0,0,1,1.806,10.768c-.054.363-.122.723-.194,1.083-.074.376.083-.3-.042.185-.055.212-.109.423-.168.633-.2.718-.443,1.424-.709,2.12-.5,1.321-1.106,2.6-1.709,3.88-1.108,2.353-2.288,4.821-2.423,7.465-.2,3.869,1.993,7.064,4.679,9.636,1.9,1.822,5.871-.983,3.684-3.077Z" fill="#f8c500"/>
      <path id="Path_2225" data-name="Path 2225" d="M1822.2,353.5c-1.113-1.306-2.186-2.648-3.178-4.049a25.073,25.073,0,0,1-2.047-3.284c-.289-.543-.561-1.1-.81-1.657-.1-.234-.2-.471-.3-.708-.161-.388-.031-.068,0,.011-.064-.17-.124-.34-.182-.512a17.284,17.284,0,0,1-.711-2.895c-.058-.363,0-.013,0,.052-.013-.124-.029-.249-.037-.374-.015-.222-.034-.442-.042-.664q-.024-.642.012-1.285c.024-.414.071-.824.129-1.235.037-.261-.054.224.039-.208.047-.219.093-.438.147-.656a22.008,22.008,0,0,1,1.729-4.475c1.492-3,3.312-5.851,4.362-9.058a21.679,21.679,0,0,0,.1-12.721c-2.327-8.235-7.746-15.476-13.155-21.941-.661-.79-1.95-1.765-3.043-1.23-1.048.513-.665,1.96-.073,2.668a88.989,88.989,0,0,1,7.787,10.539,41.477,41.477,0,0,1,3.994,8.252,25.243,25.243,0,0,1,.9,3.593,9.273,9.273,0,0,1,.164,1.323q.062.779.061,1.559a14.837,14.837,0,0,1-.834,5.209c-2.055,6.422-7.266,11.7-6.558,18.862.617,6.228,4.484,11.693,8.428,16.322.669.785,1.944,1.768,3.043,1.23,1.042-.51.673-1.964.073-2.668Z" fill="#f8c500"/>
      <path id="Path_2226" data-name="Path 2226" d="M1781.231,297.044a26.339,26.339,0,0,1,2.479,4.6,14.312,14.312,0,0,1,.5,1.57c.078.306.147.614.2.924.021.119.041.238.059.357.061.383-.007-.219.028.271a11.231,11.231,0,0,1-1.046,5.675,42.32,42.32,0,0,0-2.111,5.71,18.07,18.07,0,0,0,.021,8.223c1.152,5.136,3.907,9.831,6.748,14.192.555.851,2.026,1.728,3.043,1.229,1.122-.549.569-1.907.073-2.667a38.782,38.782,0,0,1-5.607-11.729,14.64,14.64,0,0,1-.011-7.109c1.091-4.04,3.572-7.554,3.187-11.918-.35-3.961-2.292-7.511-4.451-10.769-.562-.847-2.021-1.73-3.043-1.23-1.118.547-.575,1.911-.074,2.668Z" fill="#f8c500"/>
    </g>
    <g id="Group_498" data-name="Group 498">
      <path id="Path_2227" data-name="Path 2227" d="M1624.109,539.809h5.921l2.2,8.921a1.29,1.29,0,0,1,.174-.147.824.824,0,0,0,.174-.175l4.662-8.6h3.911l-5.813,10.475a2.959,2.959,0,0,1-1.42,1.205,5.5,5.5,0,0,1-1.8.268H1629.9a4.77,4.77,0,0,1-1.849-.281,1.864,1.864,0,0,1-.964-1.005Z" fill="#f8c500"/>
      <path id="Path_2228" data-name="Path 2228" d="M1658.482,542.755l-.857,6.055a2.647,2.647,0,0,1-.349,1.005,4.379,4.379,0,0,1-.723.951,3.944,3.944,0,0,1-.964.71,2.239,2.239,0,0,1-1.045.281h-10.261a1.777,1.777,0,0,1-.978-.281,2.682,2.682,0,0,1-.75-.71,3.008,3.008,0,0,1-.456-.951,2.634,2.634,0,0,1-.094-1.005l.858-6.055a3.067,3.067,0,0,1,.375-1,4.329,4.329,0,0,1,.723-.951,4.05,4.05,0,0,1,.951-.71,2.207,2.207,0,0,1,1.059-.281h10.261a1.8,1.8,0,0,1,.964.281,2.641,2.641,0,0,1,.764.71,3.007,3.007,0,0,1,.455.951A2.3,2.3,0,0,1,1658.482,542.755Zm-10.261,0-.857,6.055h4.9l.858-6.055Z" fill="#f8c500"/>
      <path id="Path_2229" data-name="Path 2229" d="M1674.905,542.755h-8.386l-.857,6.055h8.386l-.4,2.947h-11.065a1.779,1.779,0,0,1-.978-.281,2.682,2.682,0,0,1-.75-.71,3.008,3.008,0,0,1-.456-.951,2.613,2.613,0,0,1-.093-1.005l.857-6.055a3.089,3.089,0,0,1,.375-1,4.307,4.307,0,0,1,.724-.951,4.013,4.013,0,0,1,.951-.71,2.2,2.2,0,0,1,1.058-.281h11.065Z" fill="#f8c500"/>
      <path id="Path_2230" data-name="Path 2230" d="M1692.989,544.31a3.111,3.111,0,0,1-.375,1,4.392,4.392,0,0,1-.724.951,4.053,4.053,0,0,1-.951.71,2.156,2.156,0,0,1-1.031.281H1683.8l.4-2.946h3.43l.214-1.555h-4.9l-.857,6.055H1692l-.4,2.947H1679a1.78,1.78,0,0,1-.978-.281,2.682,2.682,0,0,1-.75-.71,3.008,3.008,0,0,1-.456-.951,2.638,2.638,0,0,1-.094-1.005l.858-6.055a3.089,3.089,0,0,1,.375-1,4.332,4.332,0,0,1,.723-.951,4.038,4.038,0,0,1,.952-.71,2.2,2.2,0,0,1,1.058-.281h10.261a1.8,1.8,0,0,1,.964.281,2.631,2.631,0,0,1,.764.71,3.009,3.009,0,0,1,.455.951,2.279,2.279,0,0,1,.067,1Zm-5.814-6.082-.911-1.768-1.393,1.768h-4.152l2.169-2.545h6.966l1.474,2.545Z" fill="#f8c500"/>
      <path id="Path_2231" data-name="Path 2231" d="M1720.691,547.256l-.241,1.554a2.647,2.647,0,0,1-.349,1.005,4.378,4.378,0,0,1-.723.951,3.945,3.945,0,0,1-.964.71,2.238,2.238,0,0,1-1.045.281h-12.94l.4-2.947h10.262l.241-1.554h-7.582a1.8,1.8,0,0,1-.965-.281,2.781,2.781,0,0,1-.776-.71,2.849,2.849,0,0,1-.47-.951,2.294,2.294,0,0,1-.067-1l.215-1.555a3.089,3.089,0,0,1,.375-1,4.332,4.332,0,0,1,.723-.951,4.038,4.038,0,0,1,.952-.71,2.2,2.2,0,0,1,1.058-.281h12.94l-.429,2.946h-10.261l-.214,1.555h7.582a1.776,1.776,0,0,1,.977.281,2.7,2.7,0,0,1,.751.71,3.006,3.006,0,0,1,.455.951A2.635,2.635,0,0,1,1720.691,547.256Z" fill="#f8c500"/>
      <path id="Path_2232" data-name="Path 2232" d="M1739.391,544.31a3.067,3.067,0,0,1-.375,1,4.419,4.419,0,0,1-.723.951,4.055,4.055,0,0,1-.951.71,2.162,2.162,0,0,1-1.032.281H1730.2l.4-2.946h3.429l.214-1.555h-4.9l-.858,6.055h9.913l-.4,2.947h-12.592a1.776,1.776,0,0,1-.977-.281,2.689,2.689,0,0,1-.751-.71,3.032,3.032,0,0,1-.456-.951,2.613,2.613,0,0,1-.093-1.005l.857-6.055a3.092,3.092,0,0,1,.375-1,4.337,4.337,0,0,1,.724-.951,4.013,4.013,0,0,1,.951-.71,2.2,2.2,0,0,1,1.058-.281h10.261a1.807,1.807,0,0,1,.965.281,2.624,2.624,0,0,1,.763.71,3.009,3.009,0,0,1,.455.951,2.278,2.278,0,0,1,.068,1Z" fill="#f8c500"/>
      <path id="Path_2233" data-name="Path 2233" d="M1758.386,551.757l1.259-9h-3.858l-1.259,9h-4.286l1.259-9h-3.858l-1.259,9h-5.359l1.688-11.948h9.243a1.872,1.872,0,0,1,.523.093,5.045,5.045,0,0,1,.6.228c.2.09.375.179.536.268a1.059,1.059,0,0,1,.322.241,1.444,1.444,0,0,1,.4-.241q.294-.133.643-.268c.232-.089.459-.165.683-.228a2.1,2.1,0,0,1,.522-.093h6.564a1.8,1.8,0,0,1,.965.281,2.625,2.625,0,0,1,.763.71,3.007,3.007,0,0,1,.455.951,2.294,2.294,0,0,1,.068,1l-1.26,9Z" fill="#f8c500"/>
      <path id="Path_2234" data-name="Path 2234" d="M1782.445,548.81a2.645,2.645,0,0,1-.349,1.005,4.374,4.374,0,0,1-.723.951,3.965,3.965,0,0,1-.964.71,2.242,2.242,0,0,1-1.045.281h-6.109l.4-2.947h3.429l.858-6.055h-4.9l-1.768,12.673h-5.359l2.2-15.619h12.941a1.8,1.8,0,0,1,.964.281,2.643,2.643,0,0,1,.764.71,3.009,3.009,0,0,1,.455.951,2.294,2.294,0,0,1,.067,1Z" fill="#f8c500"/>
      <path id="Path_2235" data-name="Path 2235" d="M1785.981,542.755a3.072,3.072,0,0,1,.375-1,4.332,4.332,0,0,1,.723-.951,4.038,4.038,0,0,1,.952-.71,2.2,2.2,0,0,1,1.058-.281h8.01l-.428,2.946h-5.332l-1.259,9h-5.359Z" fill="#f8c500"/>
      <path id="Path_2236" data-name="Path 2236" d="M1814.755,544.31a3.092,3.092,0,0,1-.376,1,4.388,4.388,0,0,1-.723.951,4.053,4.053,0,0,1-.951.71,2.156,2.156,0,0,1-1.031.281h-6.109l.4-2.946h3.429l.215-1.555h-4.9l-.858,6.055h9.913l-.4,2.947h-12.592a1.776,1.776,0,0,1-.977-.281,2.685,2.685,0,0,1-.751-.71,3.027,3.027,0,0,1-.455-.951,2.617,2.617,0,0,1-.094-1.005l.857-6.055a3.111,3.111,0,0,1,.375-1,4.367,4.367,0,0,1,.724-.951,4.053,4.053,0,0,1,.951-.71,2.2,2.2,0,0,1,1.058-.281h10.262a1.8,1.8,0,0,1,.964.281,2.643,2.643,0,0,1,.764.71,3.009,3.009,0,0,1,.455.951,2.294,2.294,0,0,1,.067,1Z" fill="#f8c500"/>
      <path id="Path_2237" data-name="Path 2237" d="M1842.028,551.757h-5.358l1.259-9h-5.117l-1.259,9h-5.359l1.688-11.948h13.155a1.8,1.8,0,0,1,.964.281,2.629,2.629,0,0,1,.764.71,3.009,3.009,0,0,1,.455.951,2.279,2.279,0,0,1,.067,1Z" fill="#f8c500"/>
      <path id="Path_2238" data-name="Path 2238" d="M1845.7,546.252a4.331,4.331,0,0,1,.723-.951,4.035,4.035,0,0,1,.951-.71,2.2,2.2,0,0,1,1.058-.281h6.108l-.4,2.946h-3.43l-.241,1.554h4.9l.857-6.055h-9.912l.428-2.946h12.592a1.807,1.807,0,0,1,.965.281,2.625,2.625,0,0,1,.763.71,3.006,3.006,0,0,1,.455.951,2.28,2.28,0,0,1,.068,1l-1.26,9h-12.94a1.776,1.776,0,0,1-.977-.281,2.688,2.688,0,0,1-.751-.71,3.032,3.032,0,0,1-.456-.951,2.613,2.613,0,0,1-.093-1.005l.241-1.554A2.648,2.648,0,0,1,1845.7,546.252Z" fill="#f8c500"/>
      <path id="Path_2239" data-name="Path 2239" d="M1872.811,551.757l1.527-10.823a3.084,3.084,0,0,1,.375-1.005,4.382,4.382,0,0,1,.724-.951,4.182,4.182,0,0,1,.937-.71,2.14,2.14,0,0,1,1.045-.281h11.065l-.4,2.947H1879.7l-.456,3.134h7.287l-.4,2.947h-7.287l-.67,4.742Z" fill="#f8c500"/>
      <path id="Path_2240" data-name="Path 2240" d="M1890.493,542.755a3.089,3.089,0,0,1,.375-1,4.3,4.3,0,0,1,.724-.951,4.01,4.01,0,0,1,.951-.71,2.2,2.2,0,0,1,1.058-.281h8.011l-.429,2.946h-5.332l-1.259,9h-5.358Z" fill="#f8c500"/>
      <path id="Path_2241" data-name="Path 2241" d="M1919.266,544.31a3.067,3.067,0,0,1-.375,1,4.419,4.419,0,0,1-.723.951,4.055,4.055,0,0,1-.951.71,2.162,2.162,0,0,1-1.032.281h-6.108l.4-2.946h3.429l.214-1.555h-4.9l-.858,6.055h9.913l-.4,2.947h-12.592a1.776,1.776,0,0,1-.977-.281,2.689,2.689,0,0,1-.751-.71,3.032,3.032,0,0,1-.456-.951,2.613,2.613,0,0,1-.093-1.005l.857-6.055a3.092,3.092,0,0,1,.375-1,4.337,4.337,0,0,1,.724-.951,4.013,4.013,0,0,1,.951-.71,2.2,2.2,0,0,1,1.058-.281h10.261a1.807,1.807,0,0,1,.965.281,2.624,2.624,0,0,1,.763.71,3.009,3.009,0,0,1,.455.951,2.278,2.278,0,0,1,.068,1Z" fill="#f8c500"/>
      <path id="Path_2242" data-name="Path 2242" d="M1936.735,551.757h-5.359l1.26-9h-5.118l-1.259,9H1920.9l1.688-11.948h13.154a1.8,1.8,0,0,1,.965.281,2.625,2.625,0,0,1,.763.71,3.009,3.009,0,0,1,.456.951,2.278,2.278,0,0,1,.066,1Z" fill="#f8c500"/>
      <path id="Path_2243" data-name="Path 2243" d="M1952.085,551.757h-9.993a1.776,1.776,0,0,1-.977-.281,2.685,2.685,0,0,1-.751-.71,3.027,3.027,0,0,1-.455-.951,2.6,2.6,0,0,1-.094-1.005l1.8-12.592h5.358l-.509,3.591h7.314l-.428,2.946h-7.314l-.858,6.055h7.314Z" fill="#f8c500"/>
      <path id="Path_2244" data-name="Path 2244" d="M1971.429,544.31a3.111,3.111,0,0,1-.375,1,4.388,4.388,0,0,1-.724.951,4.052,4.052,0,0,1-.951.71,2.156,2.156,0,0,1-1.031.281h-6.108l.4-2.946h3.43l.214-1.555h-4.9l-.857,6.055h9.912l-.4,2.947h-12.591a1.78,1.78,0,0,1-.978-.281,2.685,2.685,0,0,1-.75-.71,3.01,3.01,0,0,1-.456-.951,2.634,2.634,0,0,1-.094-1.005l.858-6.055a3.067,3.067,0,0,1,.375-1,4.332,4.332,0,0,1,.723-.951,4.038,4.038,0,0,1,.952-.71,2.2,2.2,0,0,1,1.058-.281h10.261a1.8,1.8,0,0,1,.964.281,2.641,2.641,0,0,1,.764.71,3.007,3.007,0,0,1,.455.951,2.279,2.279,0,0,1,.067,1Z" fill="#f8c500"/>
    </g>
  </g>
</svg>
